<svg xmlns="http://www.w3.org/2000/svg" width="330" height="90" viewBox="0 0 330 90" role="img" aria-labelledby="title"><title id="title">Fly My Cart ? Parcel Flight</title><g transform="translate(3 0)"><path d="m20 29 26-14 27 14v31L46 76 20 60Z" fill="#ed6c1a"/><path d="m20 29 26 15 27-15-27-14Z" fill="#ffbc79"/><path d="M46 44v32l27-16V29Z" fill="#c95212"/><path d="m32 23 27 15v15l-8 4V42L24 27Z" fill="#fff2db"/><path d="M3 40h11M1 51h13M7 62h7" stroke="#152d50" stroke-width="4" stroke-linecap="round"/><path d="m65 8 19 1-8 17-1-10-10-1Z" fill="#152d50"/></g><text x="101" y="45" fill="#152d50" font-family="Arial, Helvetica, sans-serif" font-size="28" font-weight="800" letter-spacing="-1">FLY MY CART</text><text x="103" y="63" fill="#ed6c1a" font-family="Arial, Helvetica, sans-serif" font-size="8" font-weight="700" letter-spacing="2">WORLDWIDE COURIER</text><path d="M103 72h202" stroke="#ed6c1a" stroke-width="1" opacity=".3"/></svg>